<svg version="1.1" xmlns="http://www.w3.org/2000/svg" viewBox="-2315.2306887721406 -1034.2400390625 6122.463029775558 2404.3520751953124"><desc>Created with Snap</desc><defs></defs><g><rect x="-2315.2306887721406" y="-1034.2400390625" width="6122.463029775558" height="2404.3520751953124" fill="#f7ede9" style=""></rect><g transform="matrix(19.888,0,0,19.888,-2107.4714,-826.4606)"><g transform="translate(0,-952.36218)"><path style="" d="m 45.719885,957.36164 3.18651,38.66594 c -0.0104,0.002 -0.0207,0.005 -0.0312,0.007 -0.004,7.7e-4 -0.008,0.002 -0.0117,0.003 -0.0463,0.009 -0.093,0.0154 -0.13911,0.0247 -0.004,7.6e-4 -0.008,0.002 -0.0116,0.003 -0.0493,0.01 -0.0979,0.0214 -0.14692,0.0325 -0.006,9.5e-4 -0.0104,0.003 -0.0156,0.004 -0.2469,0.0566 -0.49069,0.12668 -0.72935,0.21192 -0.0121,0.005 -0.0243,0.009 -0.0364,0.013 -0.0131,0.005 -0.026,0.009 -0.039,0.0143 l -16.53063,-35.06206 -7.4261,4.25388 22.0885,31.88727 c -0.0888,0.0738 -0.17625,0.14988 -0.26131,0.22881 -0.007,0.007 -0.0138,0.013 -0.0208,0.0195 -0.0278,0.026 -0.0546,0.0528 -0.082,0.0793 -0.0108,0.0104 -0.0218,0.0207 -0.0325,0.0312 -0.027,0.0265 -0.054,0.0535 -0.0806,0.0806 -0.12959,0.13168 -0.25391,0.2685 -0.37052,0.40953 l -31.84697,-22.10018 -4.30459,7.3975 35.07899,16.57354 c -0.003,0.01 -0.006,0.016 -0.009,0.025 -0.0102,0.028 -0.0201,0.055 -0.0299,0.083 -0.004,0.012 -0.008,0.023 -0.0116,0.035 -0.01,0.029 -0.0205,0.057 -0.0299,0.086 -0.008,0.023 -0.0149,0.046 -0.0221,0.069 -0.0107,0.034 -0.0211,0.068 -0.0312,0.1014 -0.005,0.015 -0.009,0.029 -0.013,0.044 -0.009,0.032 -0.0187,0.063 -0.0273,0.095 -0.005,0.019 -0.009,0.037 -0.0143,0.056 -0.007,0.023 -0.0123,0.047 -0.0182,0.07 -0.004,0.015 -0.007,0.029 -0.0104,0.044 -0.0341,0.1397 -0.0639,0.2792 -0.0884,0.4199 l -38.65164,-3.1839 0.0299,8.5572 38.61653,-3.2138 c 0.0675,0.4021 0.1727,0.7969 0.31462,1.1792 l -35.06208,16.5293 4.25389,7.4274 31.88726,-22.0898 c 0.25307,0.3044 0.53719,0.5885 0.85027,0.8463 l -22.10152,31.8496 7.3975,4.3046 16.57354,-35.0803 c 0.37654,0.1391 0.76017,0.2403 1.14668,0.3055 l -3.18652,38.6634 8.55848,-0.03 -3.21511,-38.6374 c 0.0264,-0 0.053,-0.01 0.0793,-0.014 0.0321,-0.01 0.0642,-0.012 0.0962,-0.018 0.0335,-0.01 0.0668,-0.014 0.10011,-0.021 0.29999,-0.063 0.59199,-0.1459 0.87496,-0.2496 l 16.57481,35.0816 7.39621,-4.3046 -22.1015,-31.8496 c 0.30851,-0.2541 0.59265,-0.5371 0.84895,-0.8437 l 31.88727,22.0898 4.25388,-7.4274 -35.05427,-16.5268 c 0.14193,-0.3794 0.24892,-0.7761 0.31722,-1.1856 l 38.63343,3.2151 0.0299,-8.55722 -38.66854,3.18522 c -0.0674,-0.3924 -0.17038,-0.773 -0.30551,-1.1376 l 35.06857,-16.56831 -4.30458,-7.3975 -31.84437,22.0989 c -0.0287,-0.0346 -0.0565,-0.0688 -0.0858,-0.1027 -0.10171,-0.11774 -0.20865,-0.23059 -0.31853,-0.34063 -9.4e-4,-9.5e-4 -0.002,-0.003 -0.003,-0.004 -0.0341,-0.0341 -0.0691,-0.068 -0.104,-0.10142 -0.002,-0.002 -0.005,-0.005 -0.007,-0.007 -0.035,-0.0333 -0.071,-0.0663 -0.10661,-0.0988 -0.002,-0.002 -0.004,-0.005 -0.007,-0.007 -0.0357,-0.0325 -0.0714,-0.0633 -0.10791,-0.0949 -0.002,-0.002 -0.004,-0.005 -0.007,-0.007 -0.0335,-0.0291 -0.0686,-0.0575 -0.1027,-0.0858 l 22.08718,-31.88469 -7.42611,-4.25387 -16.52802,35.05687 c -0.37416,-0.13875 -0.76416,-0.24216 -1.16748,-0.30943 l 3.2151,-38.63342 -8.55848,-0.0299 z" fill="#292929" fill-opacity="1" fill-rule="nonzero" stroke="none"></path></g><desc>Created with Snap</desc><defs></defs></g><g><g transform="matrix(1.024,0,0,-1.024,0,0)"><path d="M159 0L110 0Q100 0 93 6Q87 13 87 23L87 676Q87 687 93 693Q100 700 110 700L160 700Q172 700 178 694Q184 688 186 684L397 280L610 684Q612 688 617 694Q623 700 635 700L684 700Q695 700 701 693Q708 687 708 676L708 23Q708 13 701 6Q695 0 684 0L635 0Q625 0 618 6Q612 13 612 23L612 515L445 189Q441 179 433 173Q425 168 413 168L382 168Q369 168 362 173Q355 179 350 189L182 515L182 23Q182 13 175 6Q169 0 159 0ZM1013 -10Q963 -10 922 10Q881 30 856 64Q831 98 831 141Q831 210 887 251Q943 292 1033 305L1182 326L1182 355Q1182 403 1154 430Q1127 457 1065 457Q1032 457 1009 447Q987 437 973 423Q959 409 951 395Q947 386 942 382Q938 378 931 378L888 378Q879 378 872 384Q866 391 866 400Q866 415 877 437Q889 459 913 480Q937 501 974 515Q1012 530 1066 530Q1126 530 1167 514Q1208 499 1231 473Q1255 447 1265 414Q1276 381 1276 347L1276 23Q1276 13 1269 6Q1263 0 1253 0L1207 0Q1196 0 1190 6Q1184 13 1184 23L1184 66Q1171 48 1149 30Q1127 13 1094 1Q1061 -10 1013 -10ZM1034 65Q1075 65 1109 82Q1143 100 1162 137Q1182 174 1182 230L1182 258L1066 241Q995 231 959 207Q923 184 923 148Q923 120 939 101Q956 83 981 74Q1007 65 1034 65ZM1492 0L1443 0Q1433 0 1426 6Q1420 13 1420 23L1420 496Q1420 506 1426 513Q1433 520 1443 520L1489 520Q1499 520 1506 513Q1513 506 1513 496L1513 452Q1533 486 1568 503Q1603 520 1653 520L1692 520Q1702 520 1708 513Q1715 507 1715 497L1715 456Q1715 446 1708 440Q1702 434 1692 434L1632 434Q1578 434 1547 402Q1516 371 1516 317L1516 23Q1516 13 1509 6Q1502 0 1492 0ZM2024 0L1981 0Q1966 0 1957 7Q1949 14 1944 25L1759 489Q1757 494 1757 499Q1757 508 1763 514Q1769 520 1778 520L1826 520Q1837 520 1843 514Q1849 508 1851 503L2003 109L2155 503Q2157 508 2162 514Q2168 520 2179 520L2228 520Q2236 520 2242 514Q2249 508 2249 499Q2249 494 2247 489L2061 25Q2057 14 2048 7Q2040 0 2024 0ZM2562 -10Q2458 -10 2397 53Q2336 117 2330 227Q2329 240 2329 260Q2329 281 2330 294Q2334 365 2363 418Q2392 472 2442 501Q2493 530 2561 530Q2637 530 2688 498Q2740 466 2767 407Q2794 348 2794 269L2794 252Q2794 241 2787 235Q2781 229 2771 229L2425 229Q2425 228 2425 225Q2425 222 2425 220Q2427 179 2443 143Q2459 108 2489 86Q2520 64 2561 64Q2597 64 2621 75Q2645 86 2660 99Q2675 113 2680 121Q2689 133 2694 135Q2699 138 2710 138L2759 138Q2768 138 2774 132Q2781 127 2780 117Q2779 102 2764 80Q2749 59 2721 38Q2694 17 2653 3Q2613 -10 2562 -10ZM2425 301L2425 298L2699 298L2699 301Q2699 346 2682 381Q2666 416 2635 436Q2604 457 2561 457Q2518 457 2487 436Q2457 416 2441 381Q2425 346 2425 301ZM2985 0L2938 0Q2928 0 2921 6Q2915 13 2915 23L2915 687Q2915 697 2921 703Q2928 710 2938 710L2985 710Q2996 710 3002 703Q3008 697 3008 687L3008 23Q3008 13 3002 6Q2996 0 2985 0Z" fill="#292929" style=""></path></g></g><g transform="matrix(1,0,0,1,27.648,1052.672)"><g transform="matrix(1.024,0,0,-1.024,0,0)"><path d="M339 -10Q247 -10 186 24Q126 58 95 119Q64 180 61 261Q60 302 60 349Q60 396 61 439Q64 520 95 581Q126 642 186 676Q247 710 339 710Q408 710 460 691Q512 672 546 640Q581 608 599 568Q617 529 619 487Q620 478 613 472Q607 466 598 466L543 466Q534 466 527 471Q521 476 518 489Q501 567 454 596Q408 625 339 625Q258 625 211 579Q164 534 161 434Q158 352 161 266Q164 166 211 120Q258 75 339 75Q408 75 454 104Q501 133 518 211Q521 224 527 229Q534 234 543 234L598 234Q607 234 613 228Q620 223 619 214Q617 172 599 132Q581 92 546 60Q512 28 460 9Q408 -10 339 -10ZM953 -10Q877 -10 826 19Q775 48 748 99Q721 151 718 217Q717 234 717 260Q717 287 718 303Q721 370 748 421Q776 472 827 501Q878 530 953 530Q1028 530 1079 501Q1130 472 1157 421Q1185 370 1188 303Q1189 287 1189 260Q1189 234 1188 217Q1185 151 1158 99Q1131 48 1080 19Q1029 -10 953 -10ZM953 67Q1015 67 1052 106Q1089 146 1092 222Q1093 237 1093 260Q1093 283 1092 298Q1089 374 1052 413Q1015 453 953 453Q891 453 853 413Q816 374 814 298Q813 283 813 260Q813 237 814 222Q816 146 853 106Q891 67 953 67ZM1385 0L1337 0Q1327 0 1320 6Q1314 13 1314 23L1314 497Q1314 507 1320 513Q1327 520 1337 520L1382 520Q1392 520 1398 513Q1405 507 1405 497L1405 462Q1428 493 1463 511Q1498 530 1547 530Q1660 531 1707 438Q1730 480 1774 505Q1818 530 1874 530Q1926 530 1968 506Q2011 482 2035 433Q2060 385 2060 312L2060 23Q2060 13 2053 6Q2047 0 2037 0L1990 0Q1980 0 1973 6Q1967 13 1967 23L1967 303Q1967 359 1951 391Q1935 423 1908 436Q1881 449 1849 449Q1823 449 1796 436Q1769 423 1751 391Q1734 359 1734 303L1734 23Q1734 13 1727 6Q1721 0 1711 0L1664 0Q1654 0 1647 6Q1641 13 1641 23L1641 303Q1641 359 1624 391Q1607 423 1580 436Q1553 449 1523 449Q1497 449 1470 436Q1443 423 1425 391Q1408 359 1408 304L1408 23Q1408 13 1401 6Q1395 0 1385 0ZM2274 0L2226 0Q2216 0 2209 6Q2203 13 2203 23L2203 497Q2203 507 2209 513Q2216 520 2226 520L2274 520Q2284 520 2290 513Q2297 507 2297 497L2297 23Q2297 13 2290 6Q2284 0 2274 0ZM2281 617L2218 617Q2208 617 2201 623Q2195 630 2195 640L2195 694Q2195 704 2201 711Q2208 718 2218 718L2281 718Q2291 718 2298 711Q2305 704 2305 694L2305 640Q2305 630 2298 623Q2291 617 2281 617ZM2655 -10Q2584 -10 2532 17Q2481 45 2453 96Q2425 148 2423 220Q2422 235 2422 260Q2422 285 2423 300Q2425 372 2453 423Q2481 475 2532 502Q2584 530 2655 530Q2713 530 2754 514Q2796 498 2823 473Q2850 448 2863 419Q2877 390 2878 364Q2879 354 2872 348Q2865 342 2855 342L2807 342Q2797 342 2792 346Q2787 351 2782 362Q2764 411 2733 431Q2702 451 2656 451Q2596 451 2558 414Q2521 377 2518 295Q2517 259 2518 225Q2521 142 2558 105Q2596 69 2656 69Q2702 69 2733 89Q2764 109 2782 158Q2787 169 2792 174Q2797 179 2807 179L2855 179Q2865 179 2872 172Q2879 166 2878 156Q2877 135 2869 113Q2861 91 2843 68Q2826 46 2800 28Q2774 11 2738 0Q2702 -10 2655 -10ZM3177 -10Q3121 -10 3081 4Q3041 18 3016 38Q2991 58 2978 78Q2966 98 2965 110Q2964 121 2972 127Q2980 133 2988 133L3033 133Q3038 133 3041 131Q3045 130 3051 123Q3064 109 3080 95Q3096 81 3119 72Q3143 63 3178 63Q3229 63 3262 82Q3295 102 3295 140Q3295 165 3281 180Q3268 195 3233 207Q3199 219 3139 232Q3079 246 3044 266Q3009 287 2994 315Q2979 344 2979 380Q2979 417 3001 451Q3023 486 3065 508Q3108 530 3172 530Q3224 530 3261 517Q3298 504 3322 484Q3346 465 3358 446Q3370 427 3371 414Q3372 404 3365 397Q3358 391 3349 391L3307 391Q3300 391 3295 394Q3291 397 3287 401Q3277 414 3263 427Q3250 440 3228 448Q3207 457 3172 457Q3122 457 3097 436Q3072 415 3072 383Q3072 364 3083 349Q3094 334 3125 322Q3156 310 3217 296Q3283 283 3321 261Q3359 239 3375 210Q3391 181 3391 143Q3391 101 3367 66Q3343 31 3295 10Q3247 -10 3177 -10Z" fill="#292929" style=""></path></g></g></g></svg>